<svg id="Flat" height="512" viewBox="0 0 128 128" width="512" xmlns="http://www.w3.org/2000/svg"><rect fill="#4bae4d" height="65.51" rx="2.661" width="110" x="9" y="31.245"/><path d="m16.1 77.929v-27.858a11.729 11.729 0 0 0 11.726-11.729h72.348a11.729 11.729 0 0 0 11.726 11.729v27.858a11.729 11.729 0 0 0 -11.729 11.729h-72.345a11.729 11.729 0 0 0 -11.726-11.729z" fill="#c8e986"/><g fill="#4bae4d"><circle cx="64" cy="64" r="19.516" transform="matrix(.987 -.16 .16 .987 -9.425 11.078)"/><circle cx="96.979" cy="64" r="4.461"/><circle cx="31.021" cy="64" r="4.461"/></g><path d="m65.153 62.942v-8.485a4.552 4.552 0 0 1 3.475 3.022 1.153 1.153 0 0 0 2.211-.656 6.934 6.934 0 0 0 -5.686-4.723v-1a1.153 1.153 0 0 0 -2.306 0v1a6.92 6.92 0 0 0 -5.677 4.693 5.746 5.746 0 0 0 -.273 1.785 6.755 6.755 0 0 0 5.95 6.48v8.485a4.552 4.552 0 0 1 -3.475-3.022 1.153 1.153 0 0 0 -2.211.656 6.934 6.934 0 0 0 5.686 4.723v1a1.153 1.153 0 1 0 2.306 0v-1a6.92 6.92 0 0 0 5.677-4.693 5.746 5.746 0 0 0 .273-1.785 6.755 6.755 0 0 0 -5.95-6.48zm-5.953-4.364a3.5 3.5 0 0 1 .169-1.1 4.552 4.552 0 0 1 3.475-3.022v8.26a4.4 4.4 0 0 1 -3.644-4.138zm9.425 11.943a4.552 4.552 0 0 1 -3.475 3.022v-8.26a4.4 4.4 0 0 1 3.65 4.139 3.5 3.5 0 0 1 -.172 1.099z" fill="#c8e986"/></svg>