<svg id="Capa_1" enable-background="new 0 0 497 497" height="512" viewBox="0 0 497 497" width="512" xmlns="http://www.w3.org/2000/svg"><g><g><g><path d="m468.374 231.387h-26.87v15h23.575v16.444c0 13.818-10.269 25.283-23.575 27.168v15.089c21.596-1.961 38.575-20.159 38.575-42.257v-19.739c0-6.454-5.251-11.705-11.705-11.705z" fill="#7fdafe"/></g></g><g><g><path d="m102.015 209.633 71.984-6.177 5.615-53.074c.415-3.922-2.66-7.339-6.604-7.339h-129.355c-3.944 0-7.019 3.417-6.604 7.339l5.615 53.074z" fill="#f2f5fb"/></g></g><g><g><path d="m149.614 150.382-5.615 53.074 15.45 6.177 14.55-6.177 5.615-53.074c.415-3.922-2.66-7.339-6.604-7.339h-30c3.944-.001 7.019 3.417 6.604 7.339z" fill="#e6e8f0"/></g></g><g><g><path d="m374.63 379.784h-8.17c-37.902 0-68.627-30.725-68.627-68.627v-82.074c0-2.823 2.288-5.111 5.111-5.111h135.202c2.823 0 5.111 2.288 5.111 5.111v82.074c0 37.902-30.726 68.627-68.627 68.627z" fill="#baeffd"/></g></g><g><g><path d="m438.146 223.973h-30c2.823 0 5.111 2.288 5.111 5.111v82.074c0 34.186-25 62.524-57.712 67.753 3.556.568 7.199.874 10.915.874h8.17c37.901 0 68.627-30.725 68.627-68.627v-82.074c0-2.823-2.288-5.111-5.111-5.111z" fill="#9de7fe"/></g></g><g><g><path d="m283.263 41.708c-12.825 0-23.836 7.736-28.642 18.792-4.806-11.056-15.817-18.792-28.642-18.792-17.245 0-31.225 13.98-31.225 31.225 0 9.436 4.996 17.54 10.801 24.085 6.438 7.259 15.484 15.847 42.505 32.111 4.034 2.428 9.087 2.428 13.121 0 27.021-16.264 36.067-24.852 42.505-32.111 5.806-6.546 10.802-14.649 10.802-24.085 0-17.245-13.98-31.225-31.225-31.225z" fill="#f5bbe3"/></g></g><g><g><g><path d="m283.263 41.708c-5.435 0-10.537 1.401-14.986 3.844 9.661 5.309 16.211 15.579 16.211 27.381 0 9.436-4.996 17.54-10.802 24.085-5.714 6.443-13.495 13.938-34.065 26.914 2.605 1.643 5.403 3.369 8.439 5.197 4.034 2.428 9.087 2.428 13.121 0 27.021-16.264 36.067-24.852 42.505-32.111 5.806-6.546 10.802-14.649 10.802-24.085 0-17.245-13.98-31.225-31.225-31.225z" fill="#f5addc"/></g></g></g><g><g><path d="m42.666 203.456 17.596 166.328 48.07 19.405 48.134-20 17.533-165.733z" fill="#ffac7b"/></g></g><g><g><path d="m143.999 203.456-17.533 165.733h30l17.533-165.733z" fill="#f67f58"/></g></g><g><g><path d="m137.115 369.189h-47.174c-3.175-17.188 1.71-34.882 13.254-48.006l14.623-16.625 14.21 13.642z" fill="#ffeab0"/></g></g><g><g><path d="m184.474 369.189h-54.716l-12.93-69.993c-1.644-8.899 3.372-17.685 11.871-20.794 18.35-6.712 38.484-6.712 56.835 0 8.499 3.109 13.515 11.895 11.871 20.794z" fill="#fdc352"/></g></g><g><g><path d="m286.6 369.189h47.174c3.175-17.188-1.71-34.882-13.254-48.006l-14.623-16.625-14.21 13.642z" fill="#ffeab0"/></g></g><g><g><path d="m239.241 369.189h54.716l12.93-69.993c1.644-8.899-3.372-17.685-11.871-20.794-18.35-6.712-38.484-6.712-56.835 0-8.499 3.109-13.515 11.895-11.871 20.794z" fill="#fdc352"/></g></g><g><g><path d="m158.361 275.182c-2.208-11.952 4.529-23.753 15.944-27.928 24.646-9.015 51.688-9.015 76.335 0 11.415 4.175 18.152 15.976 15.944 27.928l-17.367 94.008h-73.488z" fill="#ffeab0"/></g></g><g><g><path d="m250.639 247.253c-17.103-6.256-35.358-8.161-53.167-5.734 7.855 1.07 15.624 2.975 23.167 5.734 11.415 4.175 18.152 15.976 15.944 27.928l-17.367 94.008h30l17.367-94.008c2.208-11.951-4.529-23.753-15.944-27.928z" fill="#fdd76f"/></g></g><g><g><g><path d="m134.578 455.292h-34.076c-6.32 0-11.443-5.123-11.443-11.443v-20.025l27.458-10 29.505 10v20.025c0 6.319-5.124 11.443-11.444 11.443z" fill="#99674f"/></g></g><g><g><path d="m396.498 455.292h-34.076c-6.32 0-11.443-5.123-11.443-11.443v-20.025l28.481-10 28.481 10v20.025c0 6.319-5.123 11.443-11.443 11.443z" fill="#99674f"/></g></g><g><g><path d="m455.842 423.824h-414.684c-2.538 0-4.841-1.482-5.894-3.791l-34.673-43.086c-1.955-4.289 1.18-9.163 5.894-9.163h484.031c4.713 0 7.848 4.874 5.894 9.163l-34.674 43.085c-1.053 2.31-3.357 3.792-5.894 3.792z" fill="#b28477"/></g></g><g><g><path d="m490.516 367.784h-30c4.713 0 7.848 4.874 5.894 9.163l-34.674 43.086c-1.052 2.309-3.356 3.791-5.894 3.791h30c2.538 0 4.841-1.482 5.894-3.791l34.674-43.086c1.954-4.289-1.181-9.163-5.894-9.163z" fill="#99674f"/></g></g></g><path d="m392.152 100.817h-21.238c-4.142 0-7.5 3.358-7.5 7.5s3.358 7.5 7.5 7.5h21.238c5.217 0 9.462 4.245 9.462 9.462s-4.245 9.462-9.462 9.462h-13.81-42.112c-14.222 0-25.792 11.571-25.792 25.792s11.57 25.792 25.792 25.792h24.524c5.004 0 9.075 4.071 9.075 9.075v.828c0 4.142 3.358 7.5 7.5 7.5s7.5-3.358 7.5-7.5v-.828c0-13.275-10.8-24.075-24.075-24.075h-24.524c-5.951 0-10.792-4.841-10.792-10.792s4.841-10.792 10.792-10.792h55.922c13.488 0 24.462-10.974 24.462-24.462s-10.974-24.462-24.462-24.462z" fill="#e9edf2"/></g></svg>