<svg id="Capa_1" enable-background="new 0 0 512 512" height="512" viewBox="0 0 512 512" width="512" xmlns="http://www.w3.org/2000/svg"><g><path d="m195.574 380.212 184.645-184.63c34.832 11.472 74.703 3.359 102.401-24.339 39.177-39.178 39.17-102.686 0-141.855-7.042-7.042-14.862-12.813-23.198-17.312v74.646c0 24.913-20.196 45.11-45.11 45.11-24.914 0-45.11-20.196-45.11-45.11v-77.296c-10.301 4.8-19.947 11.457-28.445 19.955-27.697 27.697-35.803 67.576-24.331 102.408l-184.645 184.63c-34.832-11.472-74.703-3.359-102.401 24.339-39.178 39.178-39.17 102.686 0 141.855 7.042 7.042 14.862 12.812 23.198 17.312v-74.646c0-24.914 20.196-45.11 45.11-45.11 24.914 0 45.11 20.196 45.11 45.11v77.297c10.301-4.8 19.947-11.457 28.445-19.955 27.698-27.698 35.803-67.576 24.331-102.409z" fill="#868086"/><path d="m340.759 29.379c8.499-8.499 18.142-15.154 28.443-19.955v25.776c-4.275 3.091-8.365 6.552-12.208 10.405-27.702 27.701-35.809 67.58-24.333 102.41l-184.65 184.629c-34.83-11.476-74.698-3.358-102.4 24.343-36.437 36.438-38.981 93.911-7.633 133.295-2.977-2.359-5.851-4.924-8.592-7.675-39.167-39.167-39.178-102.678 0-141.856 27.691-27.691 67.57-35.809 102.4-24.333l184.639-184.629c-11.465-34.84-3.358-74.719 24.334-102.41z" fill="#787078"/><g><path d="m54.66 17.959-36.701 36.702 36.358 73.06 36.423-.279.432-.432 156.159 156.159 35.609-.229.229-35.608-156.159-156.16.432-.432.278-36.423z" fill="#e9e9e9"/><path d="m247.334 283.176-156.164-156.165-.433.433-36.42.277-36.356-73.053 14.443-14.443 50.799 58.61 21.977 14.166.092-.092 156.165 156.164 21.498 13.872z" fill="#e0dee1"/><path d="m381.092 288.278 93.732 93.732c12.812 12.812 19.214 29.604 19.214 46.405s-6.402 33.593-19.214 46.405c-25.634 25.634-67.185 25.625-92.811 0l-93.732-93.732c-5.665-5.665-10.086-12.113-13.236-19.002-11.145-24.225-6.724-53.848 13.236-73.808s49.574-24.372 73.808-13.236c6.89 3.15 13.338 7.571 19.003 13.236z" fill="#e27a66"/><path d="m362.089 275.042-87.045 87.045c-11.145-24.225-6.724-53.848 13.236-73.808 19.961-19.961 49.575-24.373 73.809-13.237z" fill="#dd636e"/><path d="m489.422 452.651c-3.206 8.069-8.069 15.64-14.6 22.171-25.625 25.625-67.185 25.625-92.811 0l-93.732-93.732c-25.625-25.625-25.625-67.186 0-92.811 6.531-6.531 14.102-11.394 22.171-14.599-9.377 23.617-4.504 51.554 14.59 70.649l93.732 93.732c19.095 19.094 47.032 23.967 70.65 14.59z" fill="#dd636e"/><path d="m310.561 219.94-90.621 90.621c-9.769 9.769-9.769 25.609 0 35.378 9.769 9.769 25.609 9.769 35.378 0l90.621-90.621c9.769-9.769 9.769-25.609 0-35.378-9.769-9.769-25.609-9.769-35.378 0z" fill="#e27a66"/><path d="m274.451 316.446c6.402.009 12.803-2.432 17.685-7.314l-36.807 36.807c-4.891 4.891-11.293 7.332-17.694 7.323-6.402.009-12.813-2.441-17.695-7.323-9.764-9.764-9.764-25.607.009-35.38l36.807-36.807c-9.764 9.764-9.764 25.607 0 35.371 4.882 4.881 11.293 7.332 17.695 7.323z" fill="#dd636e"/></g></g></svg>