<svg id="Capa_1" enable-background="new 0 0 512 512" viewBox="0 0 512 512" xmlns="http://www.w3.org/2000/svg"><g><g><g><g><path d="m390.155 500.14h-268.311c-7.176 0-13.846-3.697-17.649-9.782l-14.699-23.518 166.504-16.651 166.504 16.65-14.699 23.519c-3.803 6.086-10.473 9.782-17.65 9.782z" fill="#b3dafe"/></g><g><path d="m393.366 466.84-14.699 23.519c-3.803 6.085-10.473 9.782-17.649 9.782h29.138c7.176 0 13.846-3.697 17.649-9.782l14.699-23.519-14.06-12.859z" fill="#8ac9fe"/></g><g><circle cx="145.31" cy="321.924" fill="#d77f4a" r="60.676"/></g><g><path d="m205.986 321.924c0-11.053-2.97-21.407-8.134-30.333-6.056.441-11.878 2.136-17.123 4.912-3.378-.765-6.854-1.159-10.37-1.159-16.45 0-30.944 8.51-39.327 21.354-2.572-.343-5.181-.531-7.82-.531-4.726 0-9.413.573-13.959 1.692-7.327-3.781-15.323-6.171-23.586-7.036-.666 3.601-1.031 7.307-1.031 11.101 0 33.51 27.165 60.676 60.676 60.676 33.509 0 60.674-27.166 60.674-60.676z" fill="#c86d36"/></g><g><path d="m171.44 390.296c-4.488-4.488-9.939-7.426-15.687-8.816 1.337-6.21.873-12.724-1.37-18.724h-46.926l-2.048-17.626c-16.354-13.701-40.748-12.886-56.12 2.487-15.623 15.624-16.222 40.571-1.815 56.921-7.175 12.068-6.051 27.689 3.353 38.651h112.819c2.8-1.503 5.431-3.435 7.794-5.798 13.005-13.005 13.005-34.09 0-47.095z" fill="#97d729"/></g><g><path d="m163.646 443.188c2.8-1.503 5.431-3.434 7.794-5.798 13.005-13.005 13.005-34.089 0-47.095-4.488-4.488-9.939-7.426-15.687-8.816 2.3-10.685-.693-22.281-8.996-30.585-10.996-10.995-27.767-12.692-40.547-5.094-.263-.231-.534-.448-.8-.672-15.488 9.212-26.043 25.803-26.923 44.7-13.283 10.153-21.686 26.159-21.686 43.709v9.649h106.845z" fill="#8bc727"/></g><g><path d="m430.225 433.539c0-14.517-10.321-26.621-24.024-29.382 1.542-3.611 2.398-7.586 2.398-11.761 0-15.869-12.334-28.849-27.937-29.898-2.209-8.179-9.023-14.462-17.49-15.902.278-1.396.427-2.84.427-4.318 0-12.127-9.831-21.958-21.958-21.958-5.594 0-10.697 2.095-14.574 5.54-3.153-5.617-9.159-9.419-16.059-9.419-3.354 0-6.489.911-9.197 2.477-1.951-8.075-9.205-14.082-17.88-14.082-4.085 0-7.847 1.347-10.902 3.598-4.026-4.942-10.158-8.1-17.03-8.1-6.871 0-13.003 3.158-17.03 8.1-3.054-2.251-6.816-3.598-10.902-3.598-8.675 0-15.929 6.006-17.88 14.082-2.708-1.566-5.843-2.477-9.197-2.477-6.9 0-12.905 3.801-16.059 9.418-3.877-3.444-8.98-5.54-14.574-5.54-12.127 0-21.958 9.831-21.958 21.958 0 1.478.148 2.921.427 4.318-8.467 1.44-15.281 7.723-17.49 15.902-15.603 1.049-27.937 14.029-27.937 29.898 0 4.175.856 8.15 2.398 11.761-13.704 2.76-24.024 14.865-24.024 29.382l174.227 9.65z" fill="#ffe177"/></g><g><path d="m310.029 403.148c0 10.391-.998 20.548-2.882 30.391l64.13 9.649 58.949-9.649c0-14.517-10.321-26.621-24.024-29.382 1.542-3.611 2.398-7.586 2.398-11.761 0-15.869-12.334-28.849-27.937-29.898-2.209-8.179-9.023-14.462-17.49-15.902.278-1.396.427-2.839.427-4.318 0-12.127-9.831-21.958-21.958-21.958-5.594 0-10.697 2.096-14.574 5.54-3.153-5.617-9.158-9.418-16.059-9.418-3.354 0-6.488.911-9.197 2.477-1.951-8.075-9.205-14.082-17.88-14.082-2.308 0-4.506.443-6.538 1.223 20.475 26.975 32.635 60.609 32.635 97.088z" fill="#ffd15b"/></g><g><path d="m503.675 466.84h-495.35c-4.598 0-8.325-3.727-8.325-8.325v-16.65c0-4.598 3.727-8.325 8.325-8.325h495.35c4.598 0 8.325 3.727 8.325 8.325v16.65c0 4.597-3.727 8.325-8.325 8.325z" fill="#eaf6ff"/></g><g><path d="m503.675 433.539h-29.138c4.598 0 8.325 3.727 8.325 8.325v16.65c0 4.598-3.727 8.325-8.325 8.325h29.138c4.598 0 8.325-3.727 8.325-8.325v-16.65c0-4.598-3.727-8.325-8.325-8.325z" fill="#d8ecfe"/></g></g><g><circle cx="390.028" cy="133.831" fill="#d8ecfe" r="114.472"/></g><g><path d="m456.325 40.502c13.313 18.707 21.142 41.588 21.142 66.297 0 63.221-51.251 114.472-114.472 114.472-24.709 0-47.59-7.829-66.297-21.142 20.749 29.157 54.818 48.175 93.33 48.175 63.221 0 114.472-51.251 114.472-114.472 0-38.512-19.018-72.581-48.175-93.33z" fill="#c4e2ff"/></g></g><g><g><path d="m267.773 352.092c-1.919 0-3.839-.732-5.304-2.197-1.728-1.729-4.026-2.68-6.47-2.68s-4.742.951-6.47 2.68c-2.93 2.93-7.677 2.929-10.607.001-2.929-2.929-2.929-7.678 0-10.606 4.562-4.562 10.626-7.074 17.077-7.074s12.516 2.512 17.077 7.074c2.929 2.929 2.928 7.678 0 10.606-1.464 1.464-3.383 2.196-5.303 2.196z" fill="#feb237"/></g><g><path d="m149.294 407.738c-4.142 0-7.5-3.357-7.5-7.5 0-13.316 10.834-24.15 24.15-24.15 4.142 0 7.5 3.357 7.5 7.5s-3.358 7.5-7.5 7.5c-5.045 0-9.15 4.104-9.15 9.15 0 4.143-3.357 7.5-7.5 7.5z" fill="#feb237"/></g><g><path d="m362.706 407.738c-4.142 0-7.5-3.357-7.5-7.5 0-5.046-4.105-9.15-9.15-9.15-4.142 0-7.5-3.357-7.5-7.5s3.358-7.5 7.5-7.5c13.316 0 24.15 10.834 24.15 24.15 0 4.143-3.358 7.5-7.5 7.5z" fill="#feb237"/></g><g><path d="m429.573 141.331h-39.545c-4.142 0-7.5-3.357-7.5-7.5v-60.357c0-4.143 3.358-7.5 7.5-7.5s7.5 3.357 7.5 7.5v52.857h32.045c4.142 0 7.5 3.357 7.5 7.5s-3.358 7.5-7.5 7.5z" fill="#fe646f"/></g><path d="m390.028 11.86c-67.255 0-121.971 54.716-121.971 121.972s54.716 121.972 121.971 121.972 121.972-54.717 121.972-121.973-54.716-121.971-121.972-121.971zm59.832 210.604-6.507-11.271c-2.071-3.588-6.659-4.815-10.245-2.745-3.587 2.071-4.816 6.658-2.745 10.245l6.517 11.289c-12.032 5.887-25.323 9.579-39.352 10.555v-13.047c0-4.143-3.358-7.5-7.5-7.5s-7.5 3.357-7.5 7.5v13.046c-14.029-.976-27.32-4.668-39.352-10.555l6.518-11.289c2.071-3.587.842-8.174-2.745-10.245-3.588-2.071-8.175-.843-10.245 2.745l-6.508 11.271c-11.334-7.676-21.125-17.466-28.8-28.8l11.272-6.508c3.587-2.071 4.816-6.658 2.745-10.245-2.071-3.588-6.66-4.814-10.245-2.745l-11.289 6.518c-5.887-12.032-9.578-25.323-10.555-39.352h13.046c4.142 0 7.5-3.357 7.5-7.5s-3.358-7.5-7.5-7.5h-13.046c.976-14.029 4.668-27.32 10.555-39.352l11.289 6.518c1.181.682 2.471 1.006 3.743 1.006 2.592 0 5.113-1.345 6.502-3.751 2.071-3.587.842-8.174-2.745-10.245l-11.272-6.508c7.676-11.334 17.466-21.125 28.8-28.8l6.508 11.272c1.389 2.406 3.91 3.751 6.502 3.751 1.272 0 2.562-.324 3.743-1.006 3.587-2.071 4.816-6.658 2.745-10.245l-6.518-11.289c12.032-5.887 25.323-9.579 39.352-10.555v13.047c0 4.143 3.358 7.5 7.5 7.5s7.5-3.357 7.5-7.5v-13.048c14.029.976 27.32 4.668 39.352 10.555l-6.518 11.29c-2.071 3.587-.842 8.174 2.745 10.245 1.181.682 2.471 1.006 3.743 1.006 2.592 0 5.113-1.345 6.502-3.751l6.508-11.272c11.334 7.676 21.124 17.466 28.8 28.8l-11.272 6.508c-3.587 2.071-4.816 6.658-2.745 10.245 1.389 2.406 3.91 3.751 6.502 3.751 1.272 0 2.562-.324 3.743-1.006l11.289-6.518c5.887 12.032 9.578 25.323 10.555 39.352h-13.046c-4.142 0-7.5 3.357-7.5 7.5s3.358 7.5 7.5 7.5h13.046c-.976 14.029-4.668 27.32-10.555 39.352l-11.289-6.518c-3.587-2.07-8.174-.843-10.245 2.745-2.071 3.587-.842 8.174 2.745 10.245l11.272 6.508c-7.675 11.335-17.465 21.125-28.8 28.801z" fill="#60b7ff"/></g><g><circle cx="314.183" cy="359.405" fill="#feb237" r="7.726"/></g><g><circle cx="295.431" cy="391.913" fill="#feb237" r="7.726"/></g><g><circle cx="197.817" cy="359.405" fill="#feb237" r="7.726"/></g><g><circle cx="216.569" cy="391.913" fill="#feb237" r="7.726"/></g></g><g/><g/><g/><g/><g/><g/><g/><g/><g/><g/><g/><g/><g/><g/><g/></svg>