<svg id="Layer_1" enable-background="new 0 0 512 512" viewBox="0 0 512 512" xmlns="http://www.w3.org/2000/svg"><g><circle cx="256" cy="267" fill="#012d4e" r="245"/><circle cx="256" cy="267" fill="#013f69" r="200"/><path d="m92 437h-52c-22.091 0-40-17.909-40-40v-228c0-22.091 17.909-40 40-40h52c11.046 0 20 8.954 20 20v268c0 11.046-8.954 20-20 20z" fill="#ff2aaa"/><path d="m380 437h-303c-11.046 0-20-8.954-20-20v-268c0-11.046 8.954-20 20-20h303c11.046 0 20 8.954 20 20v268c0 11.046-8.954 20-20 20z" fill="#ff4fb8"/><path d="m287 313h-27c-16.569 0-30-13.431-30-30 0-16.569 13.431-30 30-30h27c16.569 0 30 13.431 30 30 0 16.569-13.431 30-30 30z" fill="#ff73c6"/><path d="m390 313h-104c-16.569 0-30-13.431-30-30 0-16.569 13.431-30 30-30h104c16.569 0 30 13.431 30 30 0 16.569-13.431 30-30 30z" fill="#ff94d4"/><circle cx="264.5" cy="283.5" fill="#d9e7ec" r="18.5"/><path d="m248.933 193.55-12.929-12.929c-1.953-1.953-1.953-5.118 0-7.071l12.929-12.929c1.953-1.953 5.118-1.953 7.071 0l12.929 12.929c1.953 1.953 1.953 5.118 0 7.071l-12.929 12.929c-1.953 1.952-5.119 1.952-7.071 0z" fill="#ffcd6b"/><path d="m176.933 102.55-12.929-12.929c-1.953-1.953-1.953-5.118 0-7.071l12.929-12.929c1.953-1.953 5.118-1.953 7.071 0l12.929 12.929c1.953 1.953 1.953 5.118 0 7.071l-12.929 12.929c-1.953 1.952-5.119 1.952-7.071 0z" fill="#ffcd6b"/><path d="m462.221 161.301c-56.294-7.15-97.454-40.171-118.214-90.936l-3.538.681-3.965-2.648-51.365 9.883c-8.837 1.7-12.284 12.509-6.064 19.012l42.989 44.944c2.362 2.469 3.487 5.87 3.064 9.26l-7.697 61.715c-1.114 8.929 8.101 15.549 16.208 11.643l56.028-26.997c3.078-1.483 6.66-1.502 9.754-.053l56.316 26.391c8.148 3.819 17.291-2.899 16.081-11.817l-6.188-45.605-3.011-2.54z" fill="#ffc143"/><path d="m502.653 77.108-61.196-11.092c-3.362-.61-6.271-2.699-7.922-5.691l-30.048-54.452c-4.348-7.879-15.693-7.817-19.956.108l-29.459 54.773c-1.618 3.009-4.505 5.13-7.86 5.776l-9.708 1.868c20.669 53.376 70.009 92.466 129.126 98.376l-2.174-16.023c-.459-3.386.629-6.798 2.964-9.293l42.502-45.404c6.15-6.57 2.586-17.341-6.269-18.946z" fill="#ffcd6b"/></g><g/><g/><g/><g/><g/><g/><g/><g/><g/><g/><g/><g/><g/><g/><g/></svg>