<?xml version="1.0" encoding="iso-8859-1"?>
<!-- Generator: Adobe Illustrator 19.0.0, SVG Export Plug-In . SVG Version: 6.00 Build 0)  -->
<svg version="1.1" id="Capa_1" xmlns="http://www.w3.org/2000/svg" xmlns:xlink="http://www.w3.org/1999/xlink" x="0px" y="0px"
	 viewBox="0 0 512 512" style="enable-background:new 0 0 512 512;" xml:space="preserve">
<path style="fill:#9E645B;" d="M469.902,208.344H29.275C13.107,208.344,0,195.237,0,179.069l0,0
	c0-16.168,13.107-29.275,29.275-29.275h429.041c6.399,0,11.586,5.187,11.586,11.586L469.902,208.344L469.902,208.344z"/>
<path style="fill:#4D4559;" d="M469.902,208.344H29.275C13.107,208.344,0,195.237,0,179.069l0,0
	c0-16.168,13.107-29.275,29.275-29.275h429.041c6.399,0,11.586,5.187,11.586,11.586L469.902,208.344L469.902,208.344z"/>
<path style="fill:#77D057;" d="M481.173,238.095L67.06,318.153c-5.866,1.134-11.54-2.702-12.674-8.567L12.508,92.962
	c-1.134-5.866,2.702-11.54,8.567-12.674L435.188,0.23c5.866-1.134,11.54,2.702,12.674,8.567l41.879,216.624
	C490.874,231.287,487.038,236.961,481.173,238.095z"/>
<path style="fill:#62B240;" d="M489.74,225.421L447.861,8.798c-1.134-5.866-6.808-9.701-12.674-8.567l-44.178,8.541l45.985,237.865
	l44.178-8.541C487.038,236.961,490.874,231.287,489.74,225.421z"/>
<circle style="fill:#FED130;" cx="251.12" cy="159.19" r="74.58"/>
<path style="fill:#FCA629;" d="M324.343,145.037c-7.817-40.438-46.937-66.882-87.375-59.064c-4.824,0.933-9.441,2.323-13.832,4.095
	c22.614,9.171,40.286,29.225,45.263,54.969c6.885,35.615-12.812,70.194-45.232,83.28c12.907,5.234,27.418,6.936,42.112,4.095
	C305.717,224.594,332.161,185.475,324.343,145.037z"/>
<g>
	<path style="fill:#A7F288;" d="M458.21,62.328l-10.349-53.53c-1.134-5.866-6.808-9.701-12.674-8.567l-53.53,10.349
		C388.496,45.952,422.837,69.166,458.21,62.328z"/>
	<path style="fill:#A7F288;" d="M22.856,146.493c35.373-6.839,58.587-41.18,51.749-76.553l-53.53,10.349
		c-5.866,1.134-9.701,6.808-8.567,12.674L22.856,146.493z"/>
	<path style="fill:#A7F288;" d="M479.391,171.891c-35.373,6.839-58.587,41.18-51.749,76.553l53.53-10.349
		c5.866-1.134,9.701-6.808,8.567-12.674L479.391,171.891z"/>
</g>
<g>
	<path style="fill:#9BDB79;" d="M435.188,0.23l-18.904,3.655l-25.275,4.886l6.442,33.32c14.845,16.293,37.58,24.718,60.759,20.237
		l-8.858-45.817l-1.491-7.713c-0.213-1.1-0.585-2.128-1.088-3.066c-0.168-0.313-0.35-0.615-0.546-0.907
		c-0.783-1.167-1.782-2.161-2.929-2.936c-0.38-0.257-0.782-0.48-1.192-0.688C440.042,0.159,437.634-0.243,435.188,0.23z"/>
	<path style="fill:#9BDB79;" d="M489.74,225.421l-10.349-53.53c-23.179,4.481-41.135,20.773-48.838,41.425l6.442,33.32l33.631-6.502
		l10.547-2.039c0.366-0.071,0.725-0.159,1.075-0.265c0.7-0.211,1.366-0.488,1.991-0.823
		C488.302,234.827,490.661,230.187,489.74,225.421z"/>
</g>
<path style="fill:#A7F288;" d="M44.038,256.056l10.349,53.53c1.134,5.866,6.808,9.701,12.674,8.567l53.53-10.349
	C113.752,272.432,79.411,249.217,44.038,256.056z"/>
<path style="fill:#5E566A;" d="M0,179.069v295.036c0,20.911,16.952,37.863,37.863,37.863h436.274
	c20.911,0,37.863-16.952,37.863-37.863V222.721c0-7.94-6.437-14.377-14.377-14.377H29.275C13.107,208.344,0,195.237,0,179.069z"/>
<path style="fill:#4D4559;" d="M497.623,208.344h-41.045v280.139c0,12.971-10.515,23.486-23.486,23.486h41.045
	c20.911,0,37.863-16.952,37.863-37.863V222.721C512,214.781,505.563,208.344,497.623,208.344z"/>
<path style="fill:#FED130;" d="M512,415.228h-78.216c-30.368,0-54.986-24.618-54.986-54.986l0,0
	c0-30.368,24.618-54.986,54.986-54.986H512V415.228z"/>
<rect x="456.58" y="305.26" style="fill:#FCA629;" width="55.42" height="109.97"/>
<g>
	<circle style="fill:#FFFFFF;" cx="434.57" cy="360.24" r="21.483"/>
	<path style="fill:#FFFFFF;" d="M264.335,203.51l0.773-0.126c1.577-0.257,2.638-1.756,2.355-3.329l-0.221-1.23
		c11.394-3.891,17.992-12.813,15.414-26.148c-2.851-14.745-14.071-17.524-24.175-19.169l-4.254-22.008
		c7.692-0.925,11.183,1.999,13.785,1.496c3.252-0.629,3.974-5.042,3.575-7.102c-1.026-5.312-11.874-5.577-19.288-4.369l-0.566-2.926
		c-0.251-1.302-2.108-2.179-3.734-1.865c-1.843,0.356-2.914,1.799-2.662,3.101l0.608,3.143c-10.09,3.075-19.341,10.487-16.7,24.147
		c2.682,13.877,14.278,15.685,24.706,17.266l4.926,25.478c-11.226,1.27-15.62-5.752-19.198-5.061
		c-2.71,0.524-4.295,4.541-3.792,7.143c1.026,5.312,11.538,10.816,25.023,8.432l0.157,0.831
		C261.353,202.742,262.804,203.759,264.335,203.51z M239.875,143.947c-1.09-5.638,2.723-9.186,8.647-11.119l3.815,19.731
		C246.172,151.501,241.07,150.127,239.875,143.947z M272.044,175.966c1.195,6.18-1.82,10.361-7.465,12.578l-4.422-22.876
		C265.909,166.918,270.725,169.136,272.044,175.966z"/>
</g>
<g>
</g>
<g>
</g>
<g>
</g>
<g>
</g>
<g>
</g>
<g>
</g>
<g>
</g>
<g>
</g>
<g>
</g>
<g>
</g>
<g>
</g>
<g>
</g>
<g>
</g>
<g>
</g>
<g>
</g>
</svg>
