<svg id="Icon" viewBox="0 0 24 24" xmlns="http://www.w3.org/2000/svg"><path d="m20.49 15.773c-.105.314-.397.513-.712.513-.078 0-.158-.012-.237-.039l-2.121-.707c-.393-.131-.605-.556-.475-.949.132-.392.552-.606.949-.474l2.121.707c.393.131.605.556.475.949zm-5.138 1.609c-.186-.37-.636-.52-1.006-.335-.371.186-.521.636-.336 1.006l1 2c.132.263.396.415.672.415.112 0 .227-.025.334-.079.371-.186.521-.636.336-1.006l-1-2zm-6.175-13.398c-.132-.392-.553-.607-.949-.474-.393.131-.605.556-.475.949l.707 2.122c.105.314.397.513.712.513.078 0 .158-.012.237-.039.393-.131.605-.556.475-.949zm-2.56 4.663-2-1c-.37-.185-.819-.034-1.006.335-.186.371-.035.821.336 1.006l2 1c.107.054.222.079.334.079.275 0 .54-.152.672-.415.186-.371.035-.821-.336-1.006z" fill="#549bff"/><path d="m13.944 10.056c.708.708 1.099 1.65 1.099 2.651s-.391 1.943-1.099 2.652l-4.242 4.243c-.731.731-1.691 1.096-2.652 1.096s-1.92-.365-2.651-1.096c-1.461-1.462-1.461-3.841 0-5.303l2.121-2.122c.293-.293.768-.293 1.061 0s.293.768 0 1.061l-2.121 2.122c-.877.877-.877 2.305 0 3.182.877.878 2.306.876 3.183 0l4.242-4.243c.425-.425.659-.99.659-1.591s-.234-1.166-.659-1.591c-.293-.292-.293-.768 0-1.061s.768-.293 1.061 0zm5.657-5.657c-1.464-1.462-3.842-1.461-5.304 0l-4.242 4.243c-.708.708-1.099 1.65-1.099 2.652s.391 1.943 1.099 2.651c.146.146.338.22.53.22s.384-.073.53-.22c.293-.293.293-.768 0-1.061-.425-.425-.659-.99-.659-1.591s.234-1.166.659-1.591l4.242-4.243c.876-.876 2.305-.878 3.183 0 .877.877.877 2.305 0 3.182l-2.121 2.122c-.293.293-.293.768 0 1.061s.768.293 1.061 0l2.121-2.122c1.461-1.462 1.461-3.841 0-5.303z" fill="#112d55"/></svg>