<svg version="1.1" id="Layer_1" xmlns="http://www.w3.org/2000/svg" xmlns:xlink="http://www.w3.org/1999/xlink" x="0px" y="0px"
	 width="100%" viewBox="0 0 512 512" enable-background="new 0 0 512 512" xml:space="preserve">
<path fill="none" opacity="1.000000" stroke="none"
	d="
M302.000000,513.000000
	C202.690781,513.000000 103.881531,512.980835 5.072423,513.084473
	C1.807701,513.087891 0.894267,512.646667 0.896788,509.074219
	C1.015292,341.115265 1.016687,173.156235 0.892496,5.197323
	C0.889724,1.449508 1.835981,0.912667 5.300733,0.914682
	C173.093079,1.012274 340.885468,1.011378 508.677826,0.919594
	C512.084534,0.917731 513.114746,1.368712 513.111816,5.175861
	C512.982422,173.134781 512.985291,341.093811 513.100830,509.052765
	C513.103271,512.581360 512.260071,513.094238 508.948975,513.088562
	C440.132812,512.971069 371.316376,513.000000 302.000000,513.000000
z"/>
<path fill="#74D1D1" opacity="1.000000" stroke="none"
	d="
M88.817390,107.287109
	C89.738907,103.103989 93.069145,101.076981 95.293663,98.445656
	C112.999634,77.501663 134.316147,60.910496 157.867859,46.945023
	C179.930695,33.862427 203.495331,24.673679 228.277817,18.523569
	C239.499832,15.738674 250.947113,14.108801 262.486603,12.866044
	C277.752350,11.221983 293.030609,11.732777 308.237732,12.248386
	C321.704620,12.704991 335.153900,15.001735 348.337769,18.135050
	C372.232788,23.814009 395.197113,32.040928 416.737000,43.972145
	C433.716949,53.377544 450.445190,63.214832 463.920715,77.495377
	C475.893463,90.183342 477.183990,113.301331 467.660522,127.985863
	C460.819000,138.535095 451.923370,145.683563 439.470673,148.127396
	C426.148651,150.741821 413.755310,148.903519 402.841034,140.330170
	C381.041870,123.206535 357.083282,110.278816 330.066223,103.632095
	C318.977661,100.904099 307.705994,99.108650 296.148804,98.878525
	C279.770538,98.552399 263.504150,99.063141 247.587891,103.079506
	C229.509705,107.641426 212.706039,115.153038 197.420929,126.001389
	C188.979614,131.992477 180.838989,138.336487 173.733154,145.839203
	C152.670807,168.077957 138.555237,193.880112 132.838028,224.283096
	C129.970703,239.530884 129.868835,254.785599 130.093048,270.112518
	C130.166382,275.126007 131.321594,280.123688 131.922791,285.555969
	C128.308350,287.308929 127.575500,284.323608 126.630951,282.257660
	C122.133102,272.419769 118.335136,262.293762 114.741379,252.096237
	C103.482010,220.147049 95.695633,187.332336 91.162796,153.795288
	C89.475189,141.309189 87.915024,128.749344 87.756149,116.093834
	C87.720398,113.246071 87.953064,110.444672 88.817390,107.287109
z"/>
<path fill="#6CBCBA" opacity="1.000000" stroke="none"
	d="
M88.622971,107.020630
	C91.274933,113.806686 90.029480,121.066376 90.742401,128.152481
	C92.523727,145.857880 94.668167,163.470642 98.033737,180.947784
	C104.797096,216.069366 115.069923,250.098312 129.400681,282.884247
	C129.857285,283.928833 130.052612,285.162598 131.546906,285.870392
	C136.219589,310.219940 144.564484,332.843079 159.015533,352.985687
	C166.821671,363.866272 176.177460,373.284973 186.723892,382.014679
	C187.220596,382.299103 187.403305,382.437103 187.865570,382.774658
	C188.145126,382.974243 188.057236,382.965820 188.063110,382.922058
	C192.141418,388.736755 197.525284,393.457397 201.929855,399.065186
	C212.820496,412.930939 224.612717,426.059448 237.143204,438.454926
	C258.206482,459.291199 280.855255,478.272766 305.230225,495.165192
	C307.309937,496.606476 310.060120,497.852478 309.245544,501.547119
	C294.207306,501.892303 279.316864,502.953003 264.596375,501.815155
	C235.508011,499.566620 207.124985,493.717865 180.214645,481.749573
	C159.998428,472.758392 141.445206,461.363281 124.445450,447.135162
	C102.719193,428.951202 84.950485,407.681793 70.955444,383.087006
	C57.977043,360.278839 49.502773,335.959686 44.889683,310.170898
	C42.866226,298.859100 41.715637,287.512360 40.756306,276.066681
	C39.935318,266.271576 39.807869,256.516357 40.098347,246.785156
	C40.757446,224.705017 43.801052,202.901245 50.096043,181.664047
	C57.257725,157.502914 67.934525,135.018051 82.776466,114.582291
	C84.589523,112.085915 86.461456,109.632301 88.622971,107.020630
z"/>
<path fill="#74D1D1" opacity="1.000000" stroke="none"
	d="
M309.452484,501.894165
	C307.636444,498.003174 303.799957,496.819244 300.943298,494.782593
	C281.708923,481.069305 263.623810,466.049011 246.241104,450.022858
	C225.630829,431.021057 207.535141,409.901276 190.286560,387.945740
	C189.261642,386.641174 188.025177,385.461456 188.065079,383.248322
	C198.018494,390.491364 208.785751,396.731293 220.509277,401.966553
	C223.688049,400.863922 226.101257,402.358154 228.531067,403.279327
	C245.462051,409.698181 262.899628,413.508392 281.054352,413.833252
	C284.873657,413.901611 288.644836,414.486176 292.700195,415.735657
	C328.636597,415.659943 360.768219,405.149475 389.528046,384.098663
	C397.848145,378.008759 405.489868,370.950104 415.903290,367.829712
	C435.983337,361.812775 459.053925,371.900818 467.870483,391.081909
	C476.563232,409.993713 471.812622,430.705933 456.850555,443.514404
	C444.878143,453.763428 431.640442,462.341980 418.109650,470.438904
	C399.638489,481.492218 379.844299,489.372345 359.011719,494.480957
	C348.637756,497.024872 338.144958,499.307861 327.399536,500.047607
	C321.544830,500.450623 315.721527,501.309448 309.452484,501.894165
z"/>
<path fill="#CFDCE5" opacity="1.000000" stroke="none"
	d="
M293.039062,415.464294
	C286.180542,418.056244 279.193726,416.260010 272.405426,415.735260
	C255.690994,414.443085 239.399734,410.646057 223.898270,403.981659
	C222.994812,403.593231 222.176514,403.006653 221.096710,402.233032
	C220.913010,381.964569 220.951157,361.975372 220.935883,341.524109
	C222.118088,338.684540 224.428925,338.834198 226.541122,338.814941
	C242.304047,338.671265 258.068512,338.600128 273.830292,338.841461
	C279.112152,338.922333 281.115051,340.396759 281.010834,345.009460
	C280.824005,353.282501 283.815521,359.144043 291.746735,362.133850
	C292.216217,362.310822 292.465912,362.806396 292.947937,363.624176
	C293.078979,381.040161 293.042755,398.021515 293.039062,415.464294
z"/>
<path fill="#F7F5FB" opacity="1.000000" stroke="none"
	d="
M293.494049,364.031647
	C282.857147,362.127014 278.819244,357.660400 279.104675,347.499695
	C279.241669,342.623260 278.037170,340.776489 272.771454,340.880005
	C255.797745,341.213654 238.813690,341.021057 221.358032,341.046692
	C214.131332,340.896576 209.484741,336.835632 209.000763,330.678009
	C208.325348,322.084442 211.253662,317.809174 218.385788,315.892365
	C221.157608,315.147430 223.839432,315.012177 226.600067,315.009918
	C247.591888,314.992828 268.583740,315.019073 289.575500,314.981384
	C292.872162,314.975494 296.081726,315.523987 298.927155,317.035034
	C302.945221,319.168915 305.064972,322.653046 305.019440,327.377228
	C304.947266,334.873596 305.000336,342.371216 305.000061,349.868286
	C304.999756,358.194489 302.383972,361.517426 293.494049,364.031647
z"/>
<path fill="#F28A72" opacity="1.000000" stroke="none"
	d="
M261.445862,267.780396
	C264.351074,268.900787 266.859314,270.063751 269.492249,270.743622
	C280.251434,273.521698 280.599457,273.526215 279.909271,284.595978
	C279.287201,294.573120 274.133881,302.729675 266.494537,308.632172
	C258.156769,315.074310 248.770126,313.108490 241.962723,304.348328
	C236.866470,297.790131 234.509567,290.125458 233.967926,281.819366
	C233.167984,269.552185 235.006302,258.073120 242.952789,248.157379
	C245.932541,244.439209 248.817307,240.709076 253.480911,238.854813
	C254.567078,238.422928 255.728989,237.394043 256.524261,238.425903
	C257.250061,239.367645 257.882416,240.404327 257.492645,242.264755
	C256.595978,246.544846 255.910217,250.926529 255.884750,255.413727
	C255.856369,260.414093 257.486786,264.342041 261.445862,267.780396
z"/>
<path fill="#74D1D1" opacity="1.000000" stroke="none"
	d="
M188.042664,382.732056
	C187.887558,382.807007 187.628342,382.642365 187.202698,382.320679
	C187.338654,382.270660 187.639435,382.380280 188.042664,382.732056
z"/>
</svg>
