<svg id="Layer_3" height="512" viewBox="0 0 64 64" width="512" xmlns="http://www.w3.org/2000/svg" data-name="Layer 3"><path d="m49 62h-30v-60h38v52z" fill="#ddd1c4"/><path d="m49 62a30 30 0 0 1 -30-30v-30h38v52z" fill="#f3e8d8"/><g fill="#606060"><path d="m36 15h18v2h-18z"/><path d="m36 19h18v2h-18z"/><path d="m36 23h18v2h-18z"/><path d="m36 27h18v2h-18z"/><path d="m22 33h32v2h-32z"/><path d="m22 37h32v2h-32z"/><path d="m22 41h32v2h-32z"/><path d="m22 45h32v2h-32z"/><path d="m22 49h32v2h-32z"/></g><path d="m25 6h26v4h-26z" fill="#fe8e39"/><path d="m29 8h22v-2h-25.445a3.982 3.982 0 0 0 3.445 2z" fill="#ffaa71"/><path d="m49 62v-8h8" fill="#c6b6a7"/><path d="m29 21a2 2 0 1 1 2-2h2a4 4 0 0 0 -3-3.858v-2.142h-2v2.142a3.992 3.992 0 0 0 1 7.858 2 2 0 1 1 -2 2h-2a4 4 0 0 0 3 3.858v2.142h2v-2.142a3.992 3.992 0 0 0 -1-7.858z" fill="#4ead54"/><circle cx="19" cy="44" fill="#f4a93c" r="12"/><path d="m17 52 7-9h-4l1-7-7 10h4z" fill="#fce797"/></svg>