<svg id="Capa_1" enable-background="new 0 0 512 512" height="512" viewBox="0 0 512 512" width="512" xmlns="http://www.w3.org/2000/svg"><g><path d="m133.553 378.447-58.576 58.576c-49.985-49.984-74.977-115.503-74.977-181.023l47.484-26.117 35.342 26.117c0 44.318 16.916 88.637 50.727 122.447z" fill="#dd636e"/><path d="m256 0 21.125 57.794-21.125 25.032c-44.318 0-88.637 16.916-122.447 50.726l-58.663-5.072.086-53.503c49.985-49.985 115.504-74.977 181.024-74.977z" fill="#ffd064"/><path d="m512 256-46.572 25.954-36.255-25.954c0-44.318-16.915-88.637-50.726-122.447l15.725-53.034 42.851-5.542c49.985 49.984 74.977 115.503 74.977 181.023z" fill="#95d6a4"/><path d="m133.553 133.553c-33.811 33.81-50.727 78.129-50.727 122.447h-82.826c0-65.52 24.992-131.039 74.976-181.023z" fill="#e27a66"/><path d="m437.023 74.977-58.576 58.576c-33.81-33.811-78.129-50.727-122.447-50.727v-82.826c65.519 0 131.039 24.992 181.023 74.977z" fill="#ffe07d"/><path d="m512 256c0 65.52-24.992 131.039-74.977 181.023l-58.576-58.576c33.811-33.81 50.726-78.129 50.726-122.447z" fill="#b3e59f"/><path d="m321.499 283.64c-5.202 12.362-13.66 22.736-24.158 30.256-10.498 7.51-23.045 12.177-36.417 13.125l-171 12.084c-14.484 1.03-21.85-17.06-10.776-26.455l18.986-16.102 111.744-94.777c20.449-17.348 48.923-21.726 73.637-11.321 16.864 7.098 29.566 19.934 36.777 35.284 8.295 17.615 9.356 38.549 1.207 57.906z" fill="#868086"/><path d="m321.499 283.64c-5.202 12.362-13.66 22.736-24.158 30.256-10.498 7.51-23.045 12.177-36.417 13.125l-171 12.084c-14.484 1.03-21.85-17.06-10.776-26.455l18.986-16.102 3.812 2.153c13.804 7.799 29.803 10.817 45.503 8.592l107.85-15.309c35.098-4.986 60.956-33.007 64.994-66.251 8.294 17.616 9.355 38.55 1.206 57.907z" fill="#787078"/><circle cx="256" cy="256" fill="#e9e9e9" r="32.137"/><path d="m297.11 132.425h-82.219c-4.267 0-7.726-3.459-7.726-7.726s3.459-7.726 7.726-7.726h82.219c4.268 0 7.726 3.459 7.726 7.726s-3.459 7.726-7.726 7.726z" fill="#90d8f9"/><path d="m278.08 159.938h-44.16c-4.267 0-7.726-3.459-7.726-7.726s3.459-7.726 7.726-7.726h44.161c4.268 0 7.726 3.459 7.726 7.726s-3.459 7.726-7.727 7.726z" fill="#90d8f9"/><g fill="#868086"><path d="m204.189 499.854c-11.439 0-20.744-9.306-20.744-20.744v-41.099c0-17.489 14.228-31.717 31.718-31.717h22.929c4.267 0 7.726 3.459 7.726 7.726s-3.459 7.726-7.726 7.726h-22.929c-8.969 0-16.265 7.296-16.265 16.265v41.099c0 2.918 2.374 5.292 5.292 5.292s5.292-2.374 5.292-5.292v-15.23c0-11.398 9.273-20.671 20.671-20.671h7.94c4.267 0 7.726 3.459 7.726 7.726s-3.459 7.726-7.726 7.726h-7.94c-2.877 0-5.218 2.341-5.218 5.218v15.23c-.001 11.439-9.307 20.745-20.746 20.745z"/><path d="m290.358 388.842h-40.857c-10.281 0-18.626 8.334-18.626 18.626v104.532h78.108v-104.532c.001-10.292-8.333-18.626-18.625-18.626zm-6.888 62.182h-27.08c-4.591 0-8.314-3.722-8.314-8.314v-21.806c0-4.591 3.722-8.314 8.314-8.314h27.08c4.591 0 8.314 3.722 8.314 8.314v21.806c-.001 4.592-3.723 8.314-8.314 8.314z"/></g></g></svg>