<svg id="Capa_1" enable-background="new 0 0 512 512" height="512" viewBox="0 0 512 512" width="512" xmlns="http://www.w3.org/2000/svg"><g><path d="m512 256c0 141.385-114.615 256-256 256-42.279 0-82.164-10.249-117.306-28.398-32.691-16.883-55.757-46.124-78.349-74.789-2.399-3.043-10.25-.621-12.511-3.774-30.109-41.978-47.834-93.439-47.834-149.039 0-141.385 114.615-256 256-256s256 114.615 256 256z" fill="#4172cc"/><path d="m238.039 460h-136.723c-20.455-15.534-38.502-34.074-53.483-54.961v-330.039c0-2.761 2.239-5 5-5h185.207c2.761 0 5 2.239 5 5v380c-.001 2.761-2.239 5-5.001 5z" fill="#b9c3cd"/><path d="m85.956 70c-2.761 0-5 2.239-5 5v367.804c-12.228-11.463-23.331-24.113-33.123-37.766v-330.038c0-2.761 2.239-5 5-5z" fill="#a2abb8"/><path d="m72 105c0-2.761 2.239-5 5-5h40c2.761 0 5 2.239 5 5s-2.239 5-5 5h-40c-2.761 0-5-2.239-5-5zm5 75h40c2.761 0 5-2.239 5-5s-2.239-5-5-5h-40c-2.761 0-5 2.239-5 5s2.239 5 5 5zm40 60h-40c-2.761 0-5 2.239-5 5s2.239 5 5 5h40c2.761 0 5-2.239 5-5s-2.239-5-5-5zm-40-40h80c2.761 0 5-2.239 5-5s-2.239-5-5-5h-80c-2.761 0-5 2.239-5 5s2.239 5 5 5zm80 20h-80c-2.761 0-5 2.239-5 5s2.239 5 5 5h80c2.761 0 5-2.239 5-5s-2.239-5-5-5zm-80-90h30c2.761 0 5-2.239 5-5s-2.239-5-5-5h-30c-2.761 0-5 2.239-5 5s2.239 5 5 5z" fill="#909ba6"/><path d="m451 25v380c0 2.761-2.239 5-5 5h-304.167c-2.761 0-5-2.239-5-5v-380c0-2.761 2.239-5 5-5h304.167c2.761 0 5 2.239 5 5z" fill="#dce6eb"/><path d="m166.667 410h-24.833c-2.761 0-5-2.239-5-5v-380c0-2.761 2.239-5 5-5h24.833c-2.761 0-5 2.239-5 5v380c0 2.761 2.238 5 5 5z" fill="#c8d2dc"/><path d="m342.5 375c0-2.761 2.239-5 5-5h63.333c2.761 0 5 2.239 5 5 0 2.761-2.239 5-5 5h-63.333c-2.761 0-5-2.239-5-5zm-65.5-15h133.76c2.761 0 5-2.239 5-5 0-2.761-2.239-5-5-5h-133.76c-2.761 0-5 2.239-5 5 0 2.761 2.239 5 5 5zm.24-20h133.76c2.761 0 5-2.239 5-5 0-2.761-2.239-5-5-5h-133.76c-2.761 0-5 2.239-5 5 0 2.761 2.238 5 5 5zm0-20h133.76c2.761 0 5-2.239 5-5 0-2.761-2.239-5-5-5h-133.76c-2.761 0-5 2.239-5 5 0 2.761 2.238 5 5 5zm-32.159-270h-63.333c-2.761 0-5 2.239-5 5 0 2.761 2.239 5 5 5h63.333c2.761 0 5-2.239 5-5 0-2.761-2.239-5-5-5zm26.666 20h-90c-2.761 0-5 2.239-5 5 0 2.761 2.239 5 5 5h90c2.761 0 5-2.239 5-5 0-2.761-2.238-5-5-5z" fill="#b9c3cd"/><path d="m416.462 125v160c0 2.761-2.239 5-5 5h-233.833c-2.761 0-5-2.239-5-5v-160c0-2.761 2.239-5 5-5h233.833c2.762 0 5 2.239 5 5z" fill="#fccfc9"/><path d="m416.462 150v30h-243.833v-30zm-243.833 90h243.833v-30h-243.833z" fill="#fbb3a8"/><path d="m408 133c0 2.761-2.239 5-5 5h-40c-2.761 0-5-2.239-5-5s2.239-5 5-5h40c2.761 0 5 2.239 5 5z" fill="#f76c57"/><path d="m402 168h-20c-2.761 0-5-2.239-5-5s2.239-5 5-5h20c2.761 0 5 2.239 5 5s-2.239 5-5 5zm0 52h-9.489c-2.761 0-5 2.239-5 5s2.239 5 5 5h9.489c2.761 0 5-2.239 5-5s-2.239-5-5-5z" fill="#fa9084"/><path d="m391.698 262.835c-.617 1.174-1.675 2.055-2.941 2.448l-32.99 10.262c-2.634.818-5.439-.652-6.259-3.289s.652-5.439 3.29-6.26l21.214-6.599-72.507-37.087c-1.051-.537-1.878-1.43-2.334-2.519l-20.547-49.035-45.048 27.028c-1.185.711-2.613.899-3.942.521-1.33-.379-2.443-1.291-3.076-2.521l-31.271-60.771c-1.264-2.456-.297-5.471 2.158-6.734.732-.376 1.513-.555 2.284-.555 1.813 0 3.563.99 4.45 2.713l28.829 56.025 45.424-27.254c1.244-.747 2.75-.916 4.13-.464 1.379.452 2.493 1.48 3.054 2.818l22.073 52.675 71.303 36.471-6.753-21.708c-.82-2.637.652-5.439 3.289-6.26.495-.153.995-.227 1.487-.227 2.131 0 4.106 1.374 4.773 3.516l10.262 32.99c.39 1.271.264 2.642-.352 3.816z" fill="#f44545"/><path d="m372.988 416.385-38.485 88.82c-.813 1.876-3.142 2.535-4.817 1.363l-29.022-20.302c-24.052-16.825-51.477-28.216-80.373-33.382-25.853-4.622-50.558-14.232-72.738-28.295l-34.245-21.712c-1.343-.852-1.867-2.554-1.235-4.013l38.506-88.869c.789-1.821 3.019-2.507 4.695-1.444l33.385 21.167c22.18 14.063 46.886 23.673 72.738 28.295 28.895 5.166 56.32 16.556 80.373 33.382l30.104 21.059c1.259.879 1.724 2.522 1.114 3.931z" fill="#71892e"/><path d="m313.707 400.414-23.054 53.208c-5.27-2.795-10.654-5.383-16.131-7.757-15.998-6.932-32.792-12.03-49.878-15.084-23.074-4.125-44.812-12.582-64.608-25.133l-20.249-12.838 22.901-52.854 14.232 9.024c24.779 15.71 51.987 26.295 80.869 31.458 19.508 3.487 38.546 10.312 55.918 19.976z" fill="#9bcf1b"/><path d="m374.654 408.481-30.104-21.059c-24.459-17.109-52.918-28.929-82.298-34.181-25.357-4.533-49.242-13.825-70.997-27.618l-33.385-21.167c-2-1.268-4.44-1.594-6.7-.898s-4.096 2.339-5.037 4.509l-38.506 88.869c-1.591 3.671-.293 7.891 3.086 10.034l34.245 21.712c22.821 14.469 47.88 24.217 74.48 28.973 28.007 5.007 55.134 16.273 78.448 32.582l29.022 20.302c.453.317.932.584 1.429.799 1.691.733 3.589.867 5.401.354 2.344-.663 4.244-2.326 5.212-4.561l38.485-88.82c1.519-3.505.349-7.64-2.781-9.83zm-43.811 92.98-27.4-19.167c-24.459-17.109-52.918-28.929-82.298-34.181-25.357-4.533-49.242-13.825-70.997-27.618l-33.078-20.972 37.206-85.868 31.789 20.156c22.822 14.469 47.881 24.218 74.481 28.973 28.007 5.007 55.134 16.273 78.448 32.582l29.023 20.303z" fill="#9bcf1b"/><path d="m337.434 443.178c-7.095 16.374-26.12 23.896-42.493 16.802-16.374-7.095-23.896-26.12-16.801-42.493s26.12-23.896 42.493-16.801c16.373 7.093 23.895 26.118 16.801 42.492z" fill="#b9e746"/><path d="m358.117 391.611-35.4 1.138c-29.338.943-58.12 8.258-84.348 21.438-23.466 11.792-49.004 18.902-75.188 20.935l-40.426 3.138c-1.586.123-3.025-.926-3.393-2.473l-22.426-94.22c-.46-1.931.914-3.816 2.893-3.969l39.412-3.06c26.184-2.033 51.721-9.143 75.188-20.935 26.228-13.179 55.01-20.494 84.348-21.438l36.72-1.18c1.534-.049 2.892.988 3.247 2.481l22.414 94.168c.472 1.989-.998 3.911-3.041 3.977z" fill="#7fa32f"/><path d="m295.14 372.615c-5.893.92-11.755 2.074-17.562 3.456-16.961 4.037-33.461 10.019-48.97 17.813-20.944 10.524-43.415 16.78-66.783 18.595l-23.904 1.855-13.338-56.037 16.801-1.304c29.251-2.271 57.376-10.101 83.593-23.275 17.706-8.897 37.037-14.842 56.735-17.515z" fill="#9bcf1b"/><path d="m365.871 386.511-22.414-94.168c-.885-3.717-4.299-6.326-8.117-6.203l-36.72 1.18c-29.833.959-59.7 8.55-86.368 21.951-23.016 11.566-47.707 18.439-73.387 20.433l-39.412 3.06c-2.36.183-4.51 1.385-5.902 3.296-1.393 1.911-1.878 4.327-1.33 6.628l22.426 94.22c.927 3.893 4.495 6.493 8.484 6.183l40.426-3.138c26.94-2.092 52.843-9.303 76.989-21.436 25.421-12.774 53.89-20.01 82.327-20.925l35.4-1.138c.553-.018 1.096-.091 1.622-.216 1.793-.427 3.393-1.456 4.536-2.953 1.48-1.934 2.004-4.404 1.44-6.774zm-43.31 1.394c-29.834.959-59.7 8.551-86.368 21.951-23.016 11.565-47.707 18.439-73.387 20.434l-39.049 3.031-21.669-91.039 37.527-2.913c26.942-2.092 52.844-9.304 76.989-21.436 25.422-12.774 53.89-20.01 82.327-20.925l35.401-1.138 21.65 90.96z" fill="#b9e746"/><path d="m302.383 375.135c-17.36 4.132-34.782-6.591-38.914-23.951s6.591-34.782 23.951-38.914 34.782 6.591 38.914 23.951-6.591 34.782-23.951 38.914z" fill="#b9e746"/><path d="m276.042 348.191c-2.479-10.416 3.955-20.869 14.371-23.349 10.416-2.479 20.869 3.955 23.349 14.371 2.479 10.416-3.955 20.869-14.371 23.349-10.417 2.479-20.87-3.955-23.349-14.371zm39.452 64.352c-9.824-4.257-21.239.257-25.496 10.081s.257 21.239 10.081 25.496 21.239-.257 25.496-10.081c4.256-9.824-.257-21.239-10.081-25.496z" fill="#caed73"/><path d="m286.927 337.306c-.958-4.025-.585-8.056.835-11.63.851-.336 1.735-.615 2.65-.833 10.416-2.479 20.869 3.955 23.349 14.371.958 4.025.585 8.056-.835 11.63-.851.336-1.735.615-2.65.833-10.416 2.479-20.87-3.955-23.349-14.371zm28.567 75.237c-4.916-2.13-10.23-2.064-14.846-.236-3.845 9.692.681 20.752 10.316 24.927 4.916 2.13 10.23 2.064 14.846.236 3.845-9.691-.681-20.752-10.316-24.927z" fill="#dbf3a0"/><path d="m475.499 453.795c-15.621 15.621-40.948 15.621-56.569 0s-15.621-40.948 0-56.568c15.621-15.621 40.948-15.621 56.569 0s15.621 40.948 0 56.568z" fill="#ff9100"/><path d="m462.922 430.611c-7.81 7.81-20.474 7.81-28.284 0-7.81-7.811-7.81-20.474 0-28.284s20.474-7.81 28.284 0 7.81 20.474 0 28.284z" fill="#ffa90b"/><path d="m479.034 393.691c-17.545-17.545-46.094-17.545-63.64 0-17.545 17.545-17.545 46.094 0 63.64 17.545 17.545 46.094 17.545 63.64 0s17.546-46.094 0-63.64zm-7.071 56.569c-13.646 13.646-35.851 13.646-49.497 0s-13.646-35.851 0-49.498c13.646-13.646 35.851-13.646 49.497 0 13.647 13.647 13.647 35.852 0 49.498zm-7.071-14.142c1.953 1.952 1.953 5.119 0 7.071s-5.119 1.952-7.071 0l-28.284-28.284c-1.953-1.952-1.953-5.118 0-7.071 1.952-1.953 5.119-1.953 7.071 0z" fill="#ffcd71"/><path d="m242 285v190c0 8.284-6.716 15-15 15h-140c-8.284 0-15-6.716-15-15v-190c0-8.284 6.716-15 15-15h140c8.284 0 15 6.716 15 15z" fill="#274c91"/><path d="m117.088 490h-30.088c-8.284 0-15-6.716-15-15v-190c0-8.284 6.716-15 15-15h30.088c-8.284 0-15 6.716-15 15v190c0 8.284 6.715 15 15 15z" fill="#203e76"/><path d="m222 368v9c0 2.761-2.239 5-5 5h-17c-2.761 0-5-2.239-5-5v-9c0-2.761 2.239-5 5-5h17c2.761 0 5 2.239 5 5zm-39.333-5h-17c-2.761 0-5 2.239-5 5v9c0 2.761 2.239 5 5 5h17c2.761 0 5-2.239 5-5v-9c0-2.761-2.239-5-5-5zm-34.334 0h-17c-2.761 0-5 2.239-5 5v9c0 2.761 2.239 5 5 5h17c2.761 0 5-2.239 5-5v-9c0-2.761-2.238-5-5-5zm-34.333 0h-17c-2.761 0-5 2.239-5 5v9c0 2.761 2.239 5 5 5h17c2.761 0 5-2.239 5-5v-9c0-2.761-2.239-5-5-5zm103 29h-17c-2.761 0-5 2.239-5 5v9c0 2.761 2.239 5 5 5h17c2.761 0 5-2.239 5-5v-9c0-2.761-2.239-5-5-5zm-34.333 0h-17c-2.761 0-5 2.239-5 5v9c0 2.761 2.239 5 5 5h17c2.761 0 5-2.239 5-5v-9c0-2.761-2.239-5-5-5zm-34.334 0h-17c-2.761 0-5 2.239-5 5v9c0 2.761 2.239 5 5 5h17c2.761 0 5-2.239 5-5v-9c0-2.761-2.238-5-5-5zm-34.333 0h-17c-2.761 0-5 2.239-5 5v9c0 2.761 2.239 5 5 5h17c2.761 0 5-2.239 5-5v-9c0-2.761-2.239-5-5-5zm103 29h-17c-2.761 0-5 2.239-5 5v9c0 2.761 2.239 5 5 5h17c2.761 0 5-2.239 5-5v-9c0-2.761-2.239-5-5-5zm-34.333 0h-17c-2.761 0-5 2.239-5 5v9c0 2.761 2.239 5 5 5h17c2.761 0 5-2.239 5-5v-9c0-2.761-2.239-5-5-5zm-34.334 0h-17c-2.761 0-5 2.239-5 5v9c0 2.761 2.239 5 5 5h17c2.761 0 5-2.239 5-5v-9c0-2.761-2.238-5-5-5zm68.667 29h-17c-2.761 0-5 2.239-5 5v9c0 2.761 2.239 5 5 5h17c2.761 0 5-2.239 5-5v-9c0-2.761-2.239-5-5-5zm-34.333 0h-17c-2.761 0-5 2.239-5 5v9c0 2.761 2.239 5 5 5h17c2.761 0 5-2.239 5-5v-9c0-2.761-2.239-5-5-5zm-34.334 0h-17c-2.761 0-5 2.239-5 5v9c0 2.761 2.239 5 5 5h17c2.761 0 5-2.239 5-5v-9c0-2.761-2.238-5-5-5z" fill="#a2abb8"/><path d="m119 426v38c0 2.761-2.239 5-5 5h-17c-2.761 0-5-2.239-5-5v-38c0-2.761 2.239-5 5-5h17c2.761 0 5 2.239 5 5z" fill="#ff9f22"/><path d="m222 297v28c0 2.761-2.239 5-5 5h-120c-2.761 0-5-2.239-5-5v-28c0-2.761 2.239-5 5-5h120c2.761 0 5 2.239 5 5z" fill="#9bcf1b"/><path d="m222 297v28c0 2.761-2.239 5-5 5h-69.596c-10.493 0-19-8.507-19-19 0-10.494 8.507-19 19-19h69.596c2.761 0 5 2.239 5 5z" fill="#b9e746"/></g></svg>