<svg id="Capa_1" enable-background="new 0 0 512 512" height="512" viewBox="0 0 512 512" width="512" xmlns="http://www.w3.org/2000/svg"><g><path d="m469.227 90.84-89.356-89.36c-2.128-.968-4.458-1.48-6.841-1.48h-298.707c-4.561 0-8.258 3.697-8.258 8.258v495.484h396.387c4.561 0 8.258-3.697 8.258-8.258v-397.804c0-2.383-.515-4.712-1.483-6.84z" fill="#eceaec"/><path d="m74.323 462.452v-462.452h-8.258c-4.561 0-8.258 3.697-8.258 8.258v495.484c0 4.561 3.697 8.258 8.258 8.258h396.387c4.561 0 8.258-3.697 8.258-8.258v-8.258h-363.355c-18.243 0-33.032-14.789-33.032-33.032z" fill="#dbd8db"/><path d="m206.452 209.118h-140.307c-9.122 0-16.516-7.395-16.516-16.516v-143.054l8.178-16.516h148.645c9.122 0 16.516 7.395 16.516 16.516v148.645z" fill="#ff5f7a"/><path d="m156.903 305.548c-2.113 0-4.226-.806-5.839-2.419l-24.774-24.774c-3.226-3.226-3.226-8.452 0-11.677 3.226-3.226 8.452-3.226 11.677 0l18.935 18.935 43.71-43.71c3.226-3.226 8.452-3.226 11.677 0 3.226 3.226 3.226 8.452 0 11.677l-49.548 49.548c-1.612 1.614-3.725 2.42-5.838 2.42z" fill="#98db7c"/><path d="m355.097 264.258h-90.839c-4.565 0-8.258-3.698-8.258-8.258s3.694-8.258 8.258-8.258h90.839c4.565 0 8.258 3.698 8.258 8.258s-3.694 8.258-8.258 8.258z" fill="#ff5f7a"/><path d="m404.645 297.29h-140.387c-4.565 0-8.258-3.698-8.258-8.258s3.694-8.258 8.258-8.258h140.387c4.565 0 8.258 3.698 8.258 8.258s-3.693 8.258-8.258 8.258z" fill="#615260"/><path d="m156.903 388.129c-2.113 0-4.226-.806-5.839-2.419l-24.774-24.774c-3.226-3.226-3.226-8.452 0-11.677s8.452-3.226 11.677 0l18.935 18.935 43.71-43.71c3.226-3.226 8.452-3.226 11.677 0 3.226 3.226 3.226 8.452 0 11.677l-49.548 49.548c-1.612 1.614-3.725 2.42-5.838 2.42z" fill="#98db7c"/><path d="m355.097 346.839h-90.839c-4.565 0-8.258-3.698-8.258-8.258s3.694-8.258 8.258-8.258h90.839c4.565 0 8.258 3.698 8.258 8.258s-3.694 8.258-8.258 8.258z" fill="#98db7c"/><path d="m404.645 379.871h-140.387c-4.565 0-8.258-3.698-8.258-8.258s3.694-8.258 8.258-8.258h140.387c4.565 0 8.258 3.698 8.258 8.258s-3.693 8.258-8.258 8.258z" fill="#615260"/><path d="m156.903 470.71c-2.113 0-4.226-.806-5.839-2.419l-24.774-24.774c-3.226-3.226-3.226-8.452 0-11.677s8.452-3.226 11.677 0l18.935 18.935 43.71-43.71c3.226-3.226 8.452-3.226 11.677 0 3.226 3.226 3.226 8.452 0 11.677l-49.548 49.548c-1.612 1.613-3.725 2.42-5.838 2.42z" fill="#98db7c"/><path d="m355.097 429.419h-90.839c-4.565 0-8.258-3.698-8.258-8.258s3.694-8.258 8.258-8.258h90.839c4.565 0 8.258 3.698 8.258 8.258s-3.694 8.258-8.258 8.258z" fill="#7ad7ee"/><path d="m404.645 462.452h-140.387c-4.565 0-8.258-3.698-8.258-8.258s3.694-8.258 8.258-8.258h140.387c4.565 0 8.258 3.698 8.258 8.258s-3.693 8.258-8.258 8.258z" fill="#615260"/><path d="m173.419 107.355h-24.774v-24.774c0-4.561-3.697-8.258-8.258-8.258h-16.516c-4.561 0-8.258 3.697-8.258 8.258v24.774h-16.516l-9.712 15.971 32.939 10.351 11.152 31.351 15.17-8.124v-16.516h24.774c4.561 0 8.258-3.697 8.258-8.258v-16.516c-.001-4.562-3.698-8.259-8.259-8.259z" fill="#fff"/><path d="m330.323 74.323h-57.807l-11.222 16.516 11.222 9.573h61.103s13.219-9.573 13.219-9.573c.001-9.122-7.394-16.516-16.515-16.516z" fill="#ff5f7a"/><path d="m355.097 148.645h-90.839c-4.565 0-8.258-3.698-8.258-8.258s3.694-8.258 8.258-8.258h90.839c4.565 0 8.258 3.698 8.258 8.258s-3.694 8.258-8.258 8.258z" fill="#736572"/><path d="m355.097 214.71h-90.839c-4.565 0-8.258-3.698-8.258-8.258s3.694-8.258 8.258-8.258h90.839c4.565 0 8.258 3.698 8.258 8.258s-3.694 8.258-8.258 8.258z" fill="#736572"/><path d="m404.645 181.677h-140.387c-4.565 0-8.258-3.698-8.258-8.258s3.694-8.258 8.258-8.258h140.387c4.565 0 8.258 3.698 8.258 8.258s-3.693 8.258-8.258 8.258z" fill="#615260"/><path d="m465.872 86.001-81.163-81.164c-1.407-1.407-3.062-2.546-4.838-3.357v81.101c0 4.56 3.698 8.258 8.258 8.258h81.101c-.811-1.776-1.951-3.431-3.358-4.838z" fill="#dbd8db"/><path d="m57.806 33.032c-9.121 0-16.516 7.394-16.516 16.516v148.645c0 9.122 7.395 16.516 16.516 16.516h148.645c9.121 0 16.516-7.395 16.516-16.516h-140.386c-13.682 0-24.774-11.092-24.774-24.774v-140.387z" fill="#fb4455"/><path d="m132.129 140.387c0-9.122-7.395-16.516-16.516-16.516-9.122 0-16.516-7.395-16.516-16.516h-8.258c-4.561 0-8.258 3.697-8.258 8.258v16.516c0 4.561 3.697 8.258 8.258 8.258h24.774v24.774c0 4.561 3.697 8.258 8.258 8.258h16.516c4.561 0 8.258-3.697 8.258-8.258v-8.258c-9.121 0-16.516-7.394-16.516-16.516z" fill="#eceaec"/><path d="m272.516 74.323c-9.121 0-16.516 7.394-16.516 16.516 0 9.121 7.395 16.516 16.516 16.516h57.806c9.121 0 16.516-7.395 16.516-16.516h-57.806c-9.121 0-16.516-7.395-16.516-16.516z" fill="#fb4455"/></g></svg>