<?xml version="1.0" encoding="iso-8859-1"?>
<!-- Generator: Adobe Illustrator 19.0.0, SVG Export Plug-In . SVG Version: 6.00 Build 0)  -->
<svg version="1.1" id="Layer_1" xmlns="http://www.w3.org/2000/svg" xmlns:xlink="http://www.w3.org/1999/xlink" x="0px" y="0px"
	 viewBox="0 0 512 512" style="enable-background:new 0 0 512 512;" xml:space="preserve">
<path style="fill:#FEBD4B;" d="M253.774,41.739h159.165c12.295,0,22.261,9.966,22.261,22.261v155.826
	c0,12.295-9.966,22.261-22.261,22.261H251.54h-67.88H22.261C9.966,242.087,0,232.121,0,219.826V64
	c0-12.295,9.966-22.261,22.261-22.261h160.248H253.774z"/>
<path style="fill:#FEF184;" d="M317.774,141.913c0,55.325-44.849,100.174-100.174,100.174s-100.174-44.849-100.174-100.174
	S162.275,41.739,217.6,41.739S317.774,86.588,317.774,141.913z"/>
<path style="fill:#81BC82;" d="M489.739,119.652v155.826c0,12.295-9.966,22.261-22.261,22.261H306.079h-67.88H76.8
	c-12.295,0-22.261-9.966-22.261-22.261V119.652c0-12.295,9.966-22.261,22.261-22.261h160.248h71.265h159.165
	C479.773,97.391,489.739,107.357,489.739,119.652z"/>
<path style="fill:#ACE5AC;" d="M372.313,197.565c0,55.325-44.849,100.174-100.174,100.174S171.965,252.89,171.965,197.565
	S216.814,97.391,272.139,97.391S372.313,142.24,372.313,197.565z"/>
<path style="fill:#517A51;" d="M141.078,197.565c0,4.61-3.738,8.348-8.348,8.348H99.896c-4.61,0-8.348-3.738-8.348-8.348
	c0-4.61,3.738-8.348,8.348-8.348h32.835C137.341,189.217,141.078,192.955,141.078,197.565z M444.383,189.217h-32.835
	c-4.61,0-8.348,3.738-8.348,8.348c0,4.61,3.738,8.348,8.348,8.348h32.835c4.61,0,8.348-3.738,8.348-8.348
	C452.73,192.955,448.993,189.217,444.383,189.217z M313.878,219.826c0,16.878-13.73,30.609-30.609,30.609h-2.783v2.783
	c0,4.61-3.738,8.348-8.348,8.348c-4.61,0-8.348-3.738-8.348-8.348v-2.783h-13.913c-4.61,0-8.348-3.738-8.348-8.348
	s3.738-8.348,8.348-8.348h13.913v-27.826h-2.783c-16.878,0-30.609-13.731-30.609-30.609s13.73-30.609,30.609-30.609h2.783v-2.783
	c0-4.61,3.738-8.348,8.348-8.348c4.61,0,8.348,3.738,8.348,8.348v2.783H294.4c4.61,0,8.348,3.738,8.348,8.348
	s-3.738,8.348-8.348,8.348h-13.913v27.826h2.783C300.148,189.217,313.878,202.948,313.878,219.826z M263.791,161.391h-2.783
	c-7.672,0-13.913,6.241-13.913,13.913s6.241,13.913,13.913,13.913h2.783V161.391z M297.183,219.826
	c0-7.672-6.241-13.913-13.913-13.913h-2.783v27.826h2.783C290.942,233.739,297.183,227.498,297.183,219.826z"/>
<path style="fill:#FED76E;" d="M512,353.391c0,64.545-52.324,116.87-116.87,116.87s-116.87-52.324-116.87-116.87
	s52.324-116.87,116.87-116.87S512,288.846,512,353.391z"/>
<path style="fill:#FEAF50;" d="M478.609,353.391c0,46.103-37.375,83.478-83.478,83.478s-83.478-37.375-83.478-83.478
	s37.375-83.478,83.478-83.478S478.609,307.288,478.609,353.391z"/>
<path style="fill:#AF773A;" d="M436.45,323.877l-70.834,70.834c-1.629,1.629-3.767,2.445-5.902,2.445
	c-2.136,0-4.273-0.815-5.902-2.445c-3.26-3.26-3.26-8.546,0-11.805l70.834-70.834c3.26-3.26,8.546-3.26,11.805,0
	C439.71,315.332,439.71,320.618,436.45,323.877z M369.552,335.683c3.26-3.26,3.26-8.546,0-11.805c-3.26-3.26-8.546-3.26-11.805,0
	l-15.741,15.741c-3.26,3.26-3.26,8.546,0,11.805c1.629,1.629,3.767,2.445,5.902,2.445s4.273-0.815,5.902-2.445L369.552,335.683z
	 M448.256,355.359c-3.26-3.26-8.546-3.26-11.805,0L420.71,371.1c-3.26,3.26-3.26,8.546,0,11.805
	c1.629,1.629,3.767,2.445,5.902,2.445c2.136,0,4.273-0.815,5.902-2.445l15.741-15.741
	C451.516,363.905,451.516,358.619,448.256,355.359z"/>
<g>
</g>
<g>
</g>
<g>
</g>
<g>
</g>
<g>
</g>
<g>
</g>
<g>
</g>
<g>
</g>
<g>
</g>
<g>
</g>
<g>
</g>
<g>
</g>
<g>
</g>
<g>
</g>
<g>
</g>
</svg>
