<svg id="CV_Flat" enable-background="new 0 0 512 512" viewBox="0 0 512 512" xmlns="http://www.w3.org/2000/svg"><path d="m484.5 203.29h-32v-40c0-17.68-14.32-32-32-32h-32c1.52-4.24 3.12-8.48 4.88-12.88-12.24 4-23.76 8.32-34.56 12.88h-322.32c-17.68 0-32 14.32-32 32v192c0 17.68 14.32 32 32 32h187.12c8.32 6 18.08 11.12 28.88 14.24 6.64 1.92 39.04 10.88 67.04-6.8 3.52-2.24 6.72-4.72 9.52-7.44h91.44c17.68 0 32-14.32 32-32v-40h32c8.8 0 16-7.2 16-16v-80c0-8.8-7.2-16-16-16z" fill="#7e8587"/><path d="m355.38 355.29h57.12c4.4 0 8-3.6 8-8v-123.84c5.04-16.8 9.84-30.24 13.04-39.12-4.4.88-8.72 2-13.04 3.28v-16.32c0-4.4-3.6-8-8-8h-34.24c2.8-10.16 6.16-20.8 10.24-32h32c17.68 0 32 14.32 32 32v40 112 40c0 17.68-14.32 32-32 32h-91.44c9.52-8.8 15.52-19.92 20-32z" fill="#7e8587"/><path d="m433.54 184.33c-3.2 8.88-8 22.32-13.04 39.12-1.44 4.8-2.96 9.84-4.4 15.12-12.16 43.44-12.72 61.12-26.88 82.88-5.92 9.2-16.08 21.76-33.84 33.84h-6.32c3.84-10.24 6.56-21.2 9.2-32 7.2-29.36 6.32-52.08 6.24-64-.08-13.36.72-29.2 3.36-47.36 16.16-10.8 33.92-19.12 52.64-24.32 4.32-1.28 8.64-2.4 13.04-3.28z" fill="#8ab834"/><path d="m420.5 223.45v123.84c0 4.4-3.6 8-8 8h-57.12c17.76-12.08 27.92-24.64 33.84-33.84 14.16-21.76 14.72-39.44 26.88-82.88 1.44-5.28 2.96-10.32 4.4-15.12z" fill="#6aaec3"/><path d="m420.5 171.29v16.32c-18.72 5.2-36.48 13.52-52.64 24.32 2.08-14.72 5.36-30.88 10.4-48.64h34.24c4.4 0 8 3.6 8 8z" fill="#6aaec3"/><path d="m393.38 118.41c-1.76 4.4-3.36 8.64-4.88 12.88-4.08 11.2-7.44 21.84-10.24 32-5.04 17.76-8.32 33.92-10.4 48.64-2.64 18.16-3.44 34-3.36 47.36.08 11.92.96 34.64-6.24 64-2.64 10.8-5.36 21.76-9.2 32-4.48 12.08-10.48 23.2-20 32-2.8 2.72-6 5.2-9.52 7.44-28 17.68-60.4 8.72-67.04 6.8-10.8-3.12-20.56-8.24-28.88-14.24-9.84-7.12-17.68-15.52-22.96-23.28-1.92-2.88-3.6-5.76-5.12-8.72-16.4-33.28-3.84-71.68-.08-83.12 3.84-11.68 14.16-37.84 57.04-75.12 11.28-9.76 26.24-21.6 45.2-33.76 17.04-10.88 37.28-21.92 61.12-32 10.8-4.56 22.32-8.88 34.56-12.88z" fill="#a1cf4b"/><path d="m36.5 131.29h322.32c-23.84 10.08-44.08 21.12-61.12 32h-109.04-144.16c-4.4 0-8 3.6-8 8v176c0 4.4 3.6 8 8 8h117.84 33.2c1.52 2.96 3.2 5.84 5.12 8.72 5.28 7.76 13.12 16.16 22.96 23.28h-187.12c-17.68 0-32-14.32-32-32v-192c0-17.68 14.32-32 32-32z" fill="#7e8587"/><path d="m188.66 163.29h109.04c-18.96 12.16-33.92 24-45.2 33.76-42.88 37.28-53.2 63.44-57.04 75.12-3.76 11.44-16.32 49.84.08 83.12h-33.2c-3.68-24.96-7.28-50-2.48-74.56 5.04-26.16 19.28-49.84 25.52-75.84 3.28-13.76 4.16-27.68 3.28-41.6z" fill="#6aaec3"/><path d="m188.66 163.29c.88 13.92 0 27.84-3.28 41.6-6.24 26-20.48 49.68-25.52 75.84-4.8 24.56-1.2 49.6 2.48 74.56h-117.84c-4.4 0-8-3.6-8-8v-176c0-4.4 3.6-8 8-8z" fill="#fcc56c"/><g fill="#a1cf4b"><circle cx="84.5" cy="227.29" r="16"/><circle cx="136.5" cy="207.29" r="12"/><circle cx="112.5" cy="295.29" r="12"/></g><g><path d="m234.719 401.142c-.141 0-.289-.004-.43-.012-4.414-.234-7.797-4-7.57-8.41.781-14.691 10.523-145.891 111.891-227.656 3.438-2.781 8.484-2.227 11.25 1.203 2.773 3.441 2.234 8.477-1.203 11.25-95.969 77.41-105.219 202.086-105.953 216.047-.227 4.269-3.759 7.578-7.985 7.578z" fill="#8ab834"/></g></svg>