<svg id="Capa_1" enable-background="new 0 0 512 512" height="512" viewBox="0 0 512 512" width="512" xmlns="http://www.w3.org/2000/svg"><g><path d="m388.129 45.71c-4.859-2.811-10.499-4.42-16.516-4.42h-322.065c-18.243 0-33.032 14.789-33.032 33.032v256c0 6.018 1.595 11.657 4.407 16.516l16.473 8.667h359.103v-281.182z" fill="#e29a6c"/><path d="m49.548 107.355c-4.565 0-8.258-3.698-8.258-8.258v-24.774c0-4.56 3.694-8.258 8.258-8.258h24.774c4.565 0 8.258 3.698 8.258 8.258s-3.694 8.258-8.258 8.258h-16.516v16.516c0 4.56-3.693 8.258-8.258 8.258z" fill="#c6805d"/><path d="m123.871 82.581h-16.516c-4.565 0-8.258-3.698-8.258-8.258s3.694-8.258 8.258-8.258h16.516c4.565 0 8.258 3.698 8.258 8.258s-3.694 8.258-8.258 8.258z" fill="#d48c64"/><path d="m173.419 82.581h-16.516c-4.565 0-8.258-3.698-8.258-8.258s3.694-8.258 8.258-8.258h16.516c4.565 0 8.258 3.698 8.258 8.258s-3.693 8.258-8.258 8.258z" fill="#c6805d"/><path d="m222.968 82.581h-16.516c-4.565 0-8.258-3.698-8.258-8.258s3.694-8.258 8.258-8.258h16.516c4.565 0 8.258 3.698 8.258 8.258s-3.694 8.258-8.258 8.258z" fill="#d48c64"/><path d="m322.065 82.581h-16.516c-4.565 0-8.258-3.698-8.258-8.258s3.694-8.258 8.258-8.258h16.516c4.565 0 8.258 3.698 8.258 8.258s-3.694 8.258-8.258 8.258z" fill="#d48c64"/><g fill="#c6805d"><path d="m272.516 82.581h-16.516c-4.565 0-8.258-3.698-8.258-8.258s3.694-8.258 8.258-8.258h16.516c4.565 0 8.258 3.698 8.258 8.258s-3.693 8.258-8.258 8.258z"/><path d="m371.613 82.581h-16.516c-4.565 0-8.258-3.698-8.258-8.258s3.694-8.258 8.258-8.258h16.516c4.565 0 8.258 3.698 8.258 8.258s-3.694 8.258-8.258 8.258z"/><path d="m74.323 338.581h-24.775c-4.565 0-8.258-3.698-8.258-8.258v-24.774c0-4.56 3.694-8.258 8.258-8.258s8.258 3.698 8.258 8.258v16.516h16.516c4.565 0 8.258 3.698 8.258 8.258s-3.693 8.258-8.257 8.258z"/></g><path d="m123.871 338.581h-16.516c-4.565 0-8.258-3.698-8.258-8.258s3.694-8.258 8.258-8.258h16.516c4.565 0 8.258 3.698 8.258 8.258s-3.694 8.258-8.258 8.258z" fill="#d48c64"/><path d="m173.419 338.581h-16.516c-4.565 0-8.258-3.698-8.258-8.258s3.694-8.258 8.258-8.258h16.516c4.565 0 8.258 3.698 8.258 8.258s-3.693 8.258-8.258 8.258z" fill="#c6805d"/><path d="m222.968 338.581h-16.516c-4.565 0-8.258-3.698-8.258-8.258s3.694-8.258 8.258-8.258h16.516c4.565 0 8.258 3.698 8.258 8.258s-3.694 8.258-8.258 8.258z" fill="#d48c64"/><path d="m272.516 338.581h-16.516c-4.565 0-8.258-3.698-8.258-8.258s3.694-8.258 8.258-8.258h16.516c4.565 0 8.258 3.698 8.258 8.258s-3.693 8.258-8.258 8.258z" fill="#c6805d"/><path d="m49.548 165.161c-4.565 0-8.258-3.698-8.258-8.258v-24.774c0-4.56 3.694-8.258 8.258-8.258s8.258 3.698 8.258 8.258v24.774c0 4.561-3.693 8.258-8.258 8.258z" fill="#d48c64"/><path d="m49.548 280.774c-4.565 0-8.258-3.698-8.258-8.258v-24.774c0-4.56 3.694-8.258 8.258-8.258s8.258 3.698 8.258 8.258v24.774c0 4.561-3.693 8.258-8.258 8.258z" fill="#d48c64"/><path d="m388.129 45.71v175.122c0 10.865-7.027 20.658-17.476 23.636-40.991 11.681-73.215 43.904-84.895 84.895-2.978 10.449-12.77 17.476-23.636 17.476h-241.199c5.722 9.832 16.429 16.516 28.625 16.516h355.097v-289.032c0-12.196-6.684-22.891-16.516-28.613z" fill="#d48c64"/><path d="m136.258 156.903h-119.742c-9.121 0-16.516 7.394-16.516 16.516v57.806l8.808 8.081h127.45c25.085 0 41.527-21.285 41.527-36.984 0-17.315-5.933-28.216-5.933-28.216-8.32-10.481-21.172-17.203-35.594-17.203z" fill="#c6805d"/><g><path d="m140.387 210.581h-16.516c-4.565 0-8.258-3.698-8.258-8.258s3.694-8.258 8.258-8.258h16.516c4.565 0 8.258 3.698 8.258 8.258s-3.693 8.258-8.258 8.258z" fill="#ffe077"/></g><path d="m171.852 174.107c1.344 5.078 1.889 10.549 1.354 16.161-2.252 23.615-23.435 40.958-47.158 40.958h-126.048c0 9.121 7.395 16.516 16.516 16.516h119.742c25.085 0 45.419-20.335 45.419-45.419 0-10.643-3.695-20.474-9.825-28.216z" fill="#af6e4d"/><g><path d="m508.788 363.355c0 59.29-44.852 104.658-104.143 104.658-21.83 0-62.169-12.015-81.861-35.201-15.901-18.722-25.494-42.97-25.494-69.457 0-59.29 48.064-107.355 107.355-107.355 26.471 0 50.704 9.58 69.421 25.463 23.207 19.692 34.722 57.971 34.722 81.892z" fill="#e1f5fb"/><path d="m440.464 354.601-28.817-46.106c-3.234-5.175-10.771-5.175-14.006 0l-28.817 46.106c-1.898 3.037-2.72 6.537-2.465 9.975l36.871 27.202 39.7-27.219c.251-3.433-.571-6.926-2.466-9.958z" fill="#dbf180"/><path d="m419.967 373.742-9.188 3.675c-3.938 1.575-8.33 1.575-12.268 0l-32.151-12.841c.2 2.609 1.024 5.226 2.465 7.531l26.08 41.728 12.669-4.411 14.009-24.76z" fill="#b8eb7c"/><path d="m394.906 413.836 2.736 4.378c3.234 5.175 10.771 5.175 14.006 0l28.817-46.106c1.441-2.305 2.267-4.94 2.467-7.549l-22.964 9.184z" fill="#98db7c"/><path d="m474.066 281.463c15.904 18.723 25.547 43.014 25.547 69.505 0 59.29-48.065 107.355-107.355 107.355-26.491 0-50.751-9.606-69.474-25.51 19.692 23.182 49.061 37.897 81.861 37.897 59.29 0 107.355-48.065 107.355-107.355 0-32.8-14.752-62.2-37.934-81.892z" fill="#cceffa"/></g></g></svg>