<svg height="512pt" viewBox="-13 0 512 512" width="512pt" xmlns="http://www.w3.org/2000/svg"><path d="m380.289062 298.757812h-85.5c-15.265624 0-27.6875-12.421874-27.6875-27.691406v-243.378906c0-15.265625 12.421876-27.6875 27.6875-27.6875h85.5c15.265626 0 27.6875 12.421875 27.6875 27.6875v243.378906c0 15.269532-12.417968 27.691406-27.6875 27.691406zm-85.5-283.726562c-6.980468 0-12.65625 5.679688-12.65625 12.65625v243.378906c0 6.980469 5.675782 12.660156 12.65625 12.660156h85.5c6.976563 0 12.65625-5.679687 12.65625-12.660156v-243.378906c0-6.976562-5.679687-12.65625-12.65625-12.65625zm0 0" fill="#d0cfd1"/><path d="m476.671875 106.625c-.125-4.058594-3.449219-7.285156-7.511719-7.285156h-266.355468c-4.0625 0-7.390626 3.226562-7.511719 7.285156l-10.121094 332.863281c-.0625 2.03125.699219 4.003907 2.117187 5.460938 1.414063 1.460937 3.359376 2.285156 5.394532 2.285156h286.59375c2.035156 0 3.980468-.824219 5.394531-2.285156 1.417969-1.457031 2.183594-3.429688 2.117187-5.460938zm0 0" fill="#91bcee"/><path d="m288.78125 228.339844h-188.070312c-35.640626 0-64.636719 28.996094-64.636719 64.636718v154.386719c0 35.640625 28.996093 64.636719 64.636719 64.636719h188.070312c35.640625 0 64.636719-28.996094 64.636719-64.636719v-154.386719c0-35.640624-28.996094-64.636718-64.636719-64.636718zm0 0" fill="#f45a3c"/><path d="m100.394531 459.460938c-4.152343 0-7.515625-3.363282-7.515625-7.515626v-15.03125c0-4.152343 3.363282-7.515624 7.515625-7.515624 4.152344 0 7.515625 3.363281 7.515625 7.515624v15.03125c0 4.152344-3.363281 7.515626-7.515625 7.515626zm0-48.101563c-4.152343 0-7.515625-3.363281-7.515625-7.515625v-15.03125c0-4.152344 3.363282-7.515625 7.515625-7.515625 4.152344 0 7.515625 3.363281 7.515625 7.515625v15.03125c0 4.152344-3.363281 7.515625-7.515625 7.515625zm0-48.101563c-4.152343 0-7.515625-3.367187-7.515625-7.515624v-15.03125c0-4.152344 3.363282-7.515626 7.515625-7.515626 4.152344 0 7.515625 3.363282 7.515625 7.515626v15.03125c0 4.148437-3.363281 7.515624-7.515625 7.515624zm0-48.101562c-4.152343 0-7.515625-3.367188-7.515625-7.515625v-15.03125c0-4.152344 3.363282-7.519531 7.515625-7.519531 4.152344 0 7.515625 3.367187 7.515625 7.519531v15.03125c0 4.148437-3.363281 7.515625-7.515625 7.515625zm0 0" fill="#fff4f1"/><path d="m161.53125 179.769531-17.210938-61.394531c7.253907-12.058594 11.070313-25.804688 11.070313-39.96875 0-42.839844-34.855469-77.695312-77.695313-77.695312-42.839843 0-77.695312 34.855468-77.695312 77.695312 0 42.84375 34.855469 77.695312 77.695312 77.695312 6.777344 0 13.488282-.875 20-2.605468l52.464844 34.578125c1.257813.828125 2.695313 1.242187 4.136719 1.242187 1.558594 0 3.113281-.484375 4.429687-1.449218 2.53125-1.847657 3.652344-5.078126 2.804688-8.097657zm0 0" fill="#f9cd45"/><path d="m476.671875 106.625c-.125-4.058594-3.449219-7.285156-7.511719-7.285156h-23.050781c4.0625 0 7.390625 3.226562 7.511719 7.285156l10.121094 332.863281c.066406 2.03125-.699219 4.003907-2.117188 5.460938-1.414062 1.460937-3.359375 2.285156-5.394531 2.285156h23.050781c2.03125 0 3.980469-.824219 5.394531-2.285156 1.414063-1.457031 2.179688-3.429688 2.117188-5.460938zm0 0" fill="#4890e3"/><path d="m288.78125 228.339844h-23.050781c35.640625 0 64.636719 28.996094 64.636719 64.636718v154.386719c0 35.640625-28.996094 64.636719-64.636719 64.636719h23.050781c35.640625 0 64.636719-28.996094 64.636719-64.636719v-154.386719c0-35.640624-28.996094-64.636718-64.636719-64.636718zm0 0" fill="#db523c"/><path d="m74.644531 153.496094c-2.796875.742187-5.628906 1.316406-8.488281 1.746094 3.765625.5625 7.617188.859374 11.539062.859374.296876 0 .589844-.007812.886719-.011718zm0 0" fill="#f8b53c"/><path d="m161.53125 179.769531-17.210938-61.394531c7.253907-12.058594 11.070313-25.804688 11.070313-39.96875 0-42.839844-34.855469-77.695312-77.695313-77.695312-3.914062 0-7.761718.296874-11.523437.859374 37.394531 5.585938 66.167969 37.910157 66.167969 76.835938 0 14.164062-3.816406 27.910156-11.066406 39.96875l17.210937 61.394531c.0625.230469.09375.464844.136719.703125l11.539062 7.601563c1.253906.828125 2.695313 1.242187 4.132813 1.242187 1.558593 0 3.117187-.484375 4.433593-1.445312 2.53125-1.851563 3.652344-5.082032 2.804688-8.101563zm0 0" fill="#f8b53c"/><path d="m75.339844 108.859375c-11.050782-.371094-20.074219-6.078125-20.074219-11.972656 0-3.128907 2.761719-7.734375 6.261719-7.734375 3.867187 0 6.996094 5.433594 13.8125 6.628906v-14.914062c-8.472656-3.222657-18.417969-7.183594-18.417969-18.972657 0-11.691406 8.65625-17.308593 18.417969-18.691406v-2.578125c0-1.289062 1.472656-2.484375 3.5-2.484375 1.75 0 3.496094 1.195313 3.496094 2.484375v2.300781c5.710937.1875 16.484374 1.660157 16.484374 8.011719 0 2.488281-1.65625 7.550781-5.707031 7.550781-3.039062 0-4.789062-2.945312-10.777343-3.40625v13.445313c8.378906 3.128906 18.140624 7.457031 18.140624 19.890625 0 11.417969-7.363281 18.324219-18.140624 20.074219v2.667968c0 1.289063-1.746094 2.488282-3.496094 2.488282-2.027344 0-3.5-1.199219-3.5-2.488282zm.921875-42.542969v-10.957031c-4.144531.828125-5.894531 2.945313-5.894531 5.15625 0 2.667969 2.394531 4.328125 5.894531 5.800781zm5.15625 17.035156v12.339844c3.128906-.738281 5.617187-2.488281 5.617187-5.800781 0-3.039063-2.304687-4.972656-5.617187-6.539063zm0 0" fill="#ba882d"/><path d="m351.398438 322.40625h-85.84375c-26.339844 0-47.765626 21.425781-47.765626 47.765625 0 26.335937 21.425782 47.765625 47.765626 47.765625h85.84375c26.335937 0 47.765624-21.429688 47.765624-47.765625 0-26.339844-21.429687-47.765625-47.765624-47.765625zm0 0" fill="#fff4f1"/><path d="m271.753906 347.472656c-12.511718 0-22.695312 10.183594-22.695312 22.699219 0 12.511719 10.183594 22.695313 22.695312 22.695313 12.515625 0 22.699219-10.183594 22.699219-22.695313 0-12.515625-10.183594-22.699219-22.699219-22.699219zm0 0" fill="#646464"/><path d="m351.398438 322.40625h-23.050782c26.339844 0 47.765625 21.425781 47.765625 47.765625 0 26.335937-21.425781 47.765625-47.765625 47.765625h23.050782c26.335937 0 47.765624-21.429688 47.765624-47.765625 0-26.339844-21.429687-47.765625-47.765624-47.765625zm0 0" fill="#ecedef"/></svg>